<svg width="20" height="20" viewBox="0 0 20 20" fill="none" xmlns="http://www.w3.org/2000/svg">
<path d="M14.5416 18.9582C13.6 18.9582 12.6083 18.7332 11.5833 18.2998C10.5833 17.8748 9.57496 17.2915 8.59163 16.5832C7.61663 15.8665 6.67496 15.0665 5.78329 14.1915C4.89996 13.2998 4.09996 12.3582 3.39163 11.3915C2.67496 10.3915 2.09996 9.3915 1.69163 8.42484C1.25829 7.3915 1.04163 6.3915 1.04163 5.44984C1.04163 4.79984 1.15829 4.18317 1.38329 3.60817C1.61663 3.0165 1.99163 2.4665 2.49996 1.9915C3.14163 1.35817 3.87496 1.0415 4.65829 1.0415C4.98329 1.0415 5.31663 1.1165 5.59996 1.24984C5.92496 1.39984 6.19996 1.62484 6.39996 1.92484L8.33329 4.64984C8.50829 4.8915 8.64163 5.12484 8.73329 5.35817C8.84163 5.60817 8.89996 5.85817 8.89996 6.09984C8.89996 6.4165 8.80829 6.72484 8.63329 7.0165C8.50829 7.2415 8.31663 7.48317 8.07496 7.72484L7.50829 8.3165C7.51663 8.3415 7.52496 8.35817 7.53329 8.37484C7.63329 8.54984 7.83329 8.84984 8.21663 9.29984C8.62496 9.7665 9.00829 10.1915 9.39163 10.5832C9.88329 11.0665 10.2916 11.4498 10.675 11.7665C11.15 12.1665 11.4583 12.3665 11.6416 12.4582L11.625 12.4998L12.2333 11.8998C12.4916 11.6415 12.7416 11.4498 12.9833 11.3248C13.4416 11.0415 14.025 10.9915 14.6083 11.2332C14.825 11.3248 15.0583 11.4498 15.3083 11.6248L18.075 13.5915C18.3833 13.7998 18.6083 14.0665 18.7416 14.3832C18.8666 14.6998 18.925 14.9915 18.925 15.2832C18.925 15.6832 18.8333 16.0832 18.6583 16.4582C18.4833 16.8332 18.2666 17.1582 17.9916 17.4582C17.5166 17.9832 17 18.3582 16.4 18.5998C15.825 18.8332 15.2 18.9582 14.5416 18.9582ZM4.65829 2.2915C4.19996 2.2915 3.77496 2.4915 3.36663 2.8915C2.98329 3.24984 2.71663 3.6415 2.54996 4.0665C2.37496 4.49984 2.29163 4.95817 2.29163 5.44984C2.29163 6.22484 2.47496 7.0665 2.84163 7.93317C3.21663 8.8165 3.74163 9.73317 4.40829 10.6498C5.07496 11.5665 5.83329 12.4582 6.66663 13.2998C7.49996 14.1248 8.39996 14.8915 9.32496 15.5665C10.225 16.2248 11.15 16.7582 12.0666 17.1415C13.4916 17.7498 14.825 17.8915 15.925 17.4332C16.35 17.2582 16.725 16.9915 17.0666 16.6082C17.2583 16.3998 17.4083 16.1748 17.5333 15.9082C17.6333 15.6998 17.6833 15.4832 17.6833 15.2665C17.6833 15.1332 17.6583 14.9998 17.5916 14.8498C17.5666 14.7998 17.5166 14.7082 17.3583 14.5998L14.5916 12.6332C14.425 12.5165 14.275 12.4332 14.1333 12.3748C13.95 12.2998 13.875 12.2248 13.5916 12.3998C13.425 12.4832 13.275 12.6082 13.1083 12.7748L12.475 13.3998C12.15 13.7165 11.65 13.7915 11.2666 13.6498L11.0416 13.5498C10.7 13.3665 10.3 13.0832 9.85829 12.7082C9.45829 12.3665 9.02496 11.9665 8.49996 11.4498C8.09163 11.0332 7.68329 10.5915 7.25829 10.0998C6.86663 9.6415 6.58329 9.24984 6.40829 8.92484L6.30829 8.67484C6.25829 8.48317 6.24163 8.37484 6.24163 8.25817C6.24163 7.95817 6.34996 7.6915 6.55829 7.48317L7.18329 6.83317C7.34996 6.6665 7.47496 6.50817 7.55829 6.3665C7.62496 6.25817 7.64996 6.1665 7.64996 6.08317C7.64996 6.0165 7.62496 5.9165 7.58329 5.8165C7.52496 5.68317 7.43329 5.53317 7.31663 5.37484L5.38329 2.6415C5.29996 2.52484 5.19996 2.4415 5.07496 2.38317C4.94163 2.32484 4.79996 2.2915 4.65829 2.2915ZM11.625 12.5082L11.4916 13.0748L11.7166 12.4915C11.675 12.4832 11.6416 12.4915 11.625 12.5082Z" fill="#FDFDFF"/>
<path d="M16.6666 7.95817C16.325 7.95817 16.0416 7.67484 16.0416 7.33317V3.95817H12.6666C12.325 3.95817 12.0416 3.67484 12.0416 3.33317C12.0416 2.9915 12.325 2.70817 12.6666 2.70817H16.6666C17.0083 2.70817 17.2916 2.9915 17.2916 3.33317V7.33317C17.2916 7.67484 17.0083 7.95817 16.6666 7.95817Z" fill="#FDFDFF"/>
</svg>
