<svg width="16" height="16" viewBox="0 0 16 16" fill="none" xmlns="http://www.w3.org/2000/svg">
<g clip-path="url(#clip0_274_46387)">
<path d="M8.00004 15.1668C4.04671 15.1668 0.833374 11.9535 0.833374 8.00016C0.833374 4.04683 4.04671 0.833496 8.00004 0.833496C11.9534 0.833496 15.1667 4.04683 15.1667 8.00016C15.1667 11.9535 11.9534 15.1668 8.00004 15.1668ZM8.00004 1.8335C4.60004 1.8335 1.83337 4.60016 1.83337 8.00016C1.83337 11.4002 4.60004 14.1668 8.00004 14.1668C11.4 14.1668 14.1667 11.4002 14.1667 8.00016C14.1667 4.60016 11.4 1.8335 8.00004 1.8335Z" fill="#12130F" fill-opacity="0.5"/>
<path d="M10.4733 10.62C10.3866 10.62 10.3 10.6 10.22 10.5467L8.15331 9.31336C7.63997 9.0067 7.25997 8.33336 7.25997 7.74003V5.00668C7.25997 4.73334 7.48664 4.50668 7.75997 4.50668C8.03331 4.50668 8.25997 4.73334 8.25997 5.00668V7.74003C8.25997 7.98003 8.45997 8.33336 8.66664 8.45336L10.7333 9.6867C10.9733 9.8267 11.0466 10.1334 10.9066 10.3734C10.8066 10.5334 10.64 10.62 10.4733 10.62Z" fill="#12130F" fill-opacity="0.5"/>
</g>
<defs>
<clipPath id="clip0_274_46387">
<rect width="16" height="16" fill="white"/>
</clipPath>
</defs>
</svg>
