<svg width="18" height="24" viewBox="0 0 18 24" fill="none" xmlns="http://www.w3.org/2000/svg">
<path d="M17.5 8.45C16.45 3.83 12.42 1.75 8.87998 1.75C8.87998 1.75 8.87998 1.75 8.86998 1.75C5.33998 1.75 1.29998 3.82 0.249978 8.44C-0.920022 13.6 2.23998 17.97 5.09998 20.72C6.15998 21.74 7.51998 22.25 8.87998 22.25C10.24 22.25 11.6 21.74 12.65 20.72C15.51 17.97 18.67 13.61 17.5 8.45Z" fill="#8806CE"/>
<path d="M8.87998 13.4602C10.6197 13.4602 12.03 12.0499 12.03 10.3102C12.03 8.57046 10.6197 7.16016 8.87998 7.16016C7.14028 7.16016 5.72998 8.57046 5.72998 10.3102C5.72998 12.0499 7.14028 13.4602 8.87998 13.4602Z" fill="#FDFDFF"/>
</svg>
