<svg width="24" height="24" viewBox="0 0 24 24" fill="none" xmlns="http://www.w3.org/2000/svg">
<path d="M21 9.75C20.59 9.75 20.25 9.41 20.25 9V3.75H15C14.59 3.75 14.25 3.41 14.25 3C14.25 2.59 14.59 2.25 15 2.25H21C21.41 2.25 21.75 2.59 21.75 3V9C21.75 9.41 21.41 9.75 21 9.75Z" fill="#12130F"/>
<path d="M9 21.75H3C2.59 21.75 2.25 21.41 2.25 21V15C2.25 14.59 2.59 14.25 3 14.25C3.41 14.25 3.75 14.59 3.75 15V20.25H9C9.41 20.25 9.75 20.59 9.75 21C9.75 21.41 9.41 21.75 9 21.75Z" fill="#12130F"/>
<path d="M13.4999 11.2495C13.3099 11.2495 13.1199 11.1795 12.9699 11.0295C12.6799 10.7395 12.6799 10.2595 12.9699 9.96945L20.4699 2.46945C20.7599 2.17945 21.2399 2.17945 21.5299 2.46945C21.8199 2.75945 21.8199 3.23945 21.5299 3.52945L14.0299 11.0295C13.8799 11.1795 13.6899 11.2495 13.4999 11.2495Z" fill="#12130F"/>
<path d="M3 21.75C2.81 21.75 2.61994 21.6795 2.46994 21.5295C2.17994 21.2395 2.17994 20.7595 2.46994 20.4695L9.96994 12.9695C10.2599 12.6795 10.7399 12.6795 11.0299 12.9695C11.3199 13.2595 11.3199 13.7395 11.0299 14.0295L3.52994 21.5295C3.37994 21.6795 3.19 21.75 3 21.75Z" fill="#12130F"/>
</svg>
