<svg width="24" height="24" viewBox="0 0 24 24" fill="none" xmlns="http://www.w3.org/2000/svg">
<path d="M13.503 3.74901C13.913 3.74901 14.253 4.08901 14.253 4.49901V9.74901H19.503C19.913 9.74901 20.253 10.089 20.253 10.499C20.253 10.909 19.913 11.249 19.503 11.249H13.503C13.093 11.249 12.753 10.909 12.753 10.499V4.49901C12.753 4.08901 13.093 3.74901 13.503 3.74901Z" fill="#12130F"/>
<path d="M21.0031 2.24951C21.1931 2.24951 21.3831 2.31951 21.5331 2.46951C21.8231 2.75951 21.8231 3.23951 21.5331 3.52956L14.0331 11.0296C13.7431 11.3196 13.2631 11.3196 12.9731 11.0296C12.6831 10.7396 12.6831 10.2596 12.9731 9.96956L20.4731 2.46951C20.6231 2.31951 20.8131 2.24951 21.0031 2.24951Z" fill="#12130F"/>
<path d="M4.49764 12.752H10.4976C10.9076 12.752 11.2476 13.092 11.2476 13.502V19.502C11.2476 19.912 10.9076 20.252 10.4976 20.252C10.0876 20.252 9.74764 19.912 9.74764 19.502V14.252H4.49764C4.08764 14.252 3.74764 13.912 3.74764 13.502C3.74764 13.092 4.08764 12.752 4.49764 12.752Z" fill="#12130F"/>
<path d="M10.4976 12.752C10.6876 12.752 10.8777 12.8225 11.0277 12.9725C11.3177 13.2625 11.3177 13.7425 11.0277 14.0325L3.5277 21.5325C3.23774 21.8225 2.75774 21.8225 2.46774 21.5325C2.17774 21.2425 2.17774 20.7625 2.46774 20.4725L9.9677 12.9725C10.1177 12.8225 10.3076 12.752 10.4976 12.752Z" fill="#12130F"/>
</svg>
