<svg width="36" height="28" viewBox="0 0 36 28" fill="none" xmlns="http://www.w3.org/2000/svg">
<g clip-path="url(#clip0_367_14)">
<path d="M33.5144 26.182C34.9641 24.7229 34.9641 22.3572 33.5144 20.898C32.0648 19.4389 29.7144 19.4389 28.2647 20.898C26.8151 22.3572 26.8151 24.7229 28.2647 26.182C29.7144 27.6412 32.0648 27.6412 33.5144 26.182Z" fill="#12130F"/>
<path d="M32.8343 25.4973C33.9082 24.4163 33.9082 22.6638 32.8343 21.5828C31.7604 20.5019 30.0192 20.5019 28.9453 21.5828C27.8713 22.6638 27.8713 24.4163 28.9453 25.4973C30.0192 26.5782 31.7604 26.5782 32.8343 25.4973Z" fill="#838383"/>
<path d="M30.89 25.1095C31.7513 25.1095 32.4495 24.4068 32.4495 23.5399C32.4495 22.673 31.7513 21.9702 30.89 21.9702C30.0288 21.9702 29.3306 22.673 29.3306 23.5399C29.3306 24.4068 30.0288 25.1095 30.89 25.1095Z" fill="white"/>
<path d="M34.9574 22.1745C34.1001 19.0337 30.5568 19.3339 30.5568 19.3339L28.2554 19.3321L26.4933 22.1745L25.8918 24.0906H28.2554L29.2993 22.1745H34.9574Z" fill="#6D05A5"/>
<path d="M8.87159 9.75342H2.42651V16.3134H8.87159V9.75342Z" fill="#08A045"/>
<path d="M9.37577 9.75342H1.92163V11.2567H9.37577V9.75342Z" fill="#08A045"/>
<path d="M8.87159 11.2563H2.42651V11.6667H8.87159V11.2563Z" fill="#E6C46C"/>
<path d="M3.51642 9.75293H3.08374V16.3129H3.51642V9.75293Z" fill="#8806CE"/>
<path d="M8.20953 9.75244H7.77686V16.3124H8.20953V9.75244Z" fill="#8806CE"/>
<path d="M10.7051 16.3135H1.63623" stroke="#8806CE" stroke-width="3.549" stroke-miterlimit="10"/>
<path d="M5.37939 16.313L8.98646 20.1155" stroke="#8806CE" stroke-width="3.549" stroke-miterlimit="10"/>
<path d="M26.0828 10.071L25.7658 7.83277C25.7475 7.70332 25.6443 7.60477 25.5149 7.59308L24.8953 7.53726L24.9105 7.36523L25.5302 7.42105C25.7393 7.43985 25.9062 7.59913 25.9358 7.80842L26.2528 10.0467L26.0828 10.071Z" fill="#12130F"/>
<path d="M24.606 6.27617V8.32996C24.606 8.32996 25.0386 8.26286 25.0386 7.18893C25.0386 6.11501 24.606 6.27617 24.606 6.27617Z" fill="#6D05A5"/>
<path d="M9.77787 16.9912C9.77787 16.9912 9.75636 16.9697 9.72128 16.9287C8.70637 15.7404 9.57643 14.4141 11.1334 14.4141H17.9762C19.2847 14.4141 20.2133 15.2516 19.6746 16.4519C19.5957 16.6277 19.49 16.808 19.352 16.9911H9.77787V16.9912Z" fill="#08A045"/>
<path d="M17.5403 22.5972H23.9563L26.5519 18.7031L27.3634 20.2482L24.8222 24.2779L19.5903 24.7959L17.5403 22.5972Z" fill="#6D05A5"/>
<path d="M30.5565 19.334C30.5565 19.334 30.2588 17.7036 28.7126 15.8054C27.6758 14.5326 26.8226 13.2799 26.1513 12.5906H26.8406V9.75342H25.7314C25.4446 9.75342 25.1797 9.91212 25.046 10.1675C24.701 10.8263 24.5951 11.5854 24.7463 12.3142L26.5868 19.6215C26.6486 19.9193 26.6012 20.2295 26.4535 20.495L25.0357 23.0412C24.7901 23.4821 24.3273 23.755 23.8252 23.755H20.1621C19.4642 23.755 18.5416 23.2334 18.4524 22.5367L18.2389 20.8685C18.111 19.8683 18.7233 18.8584 19.3458 18.0682L19.3518 18.0607V16.9915H9.77777L7.4939 19.6042L15.05 22.5279L16.7638 24.4365C17.324 25.139 18.1526 25.5873 19.0468 25.6233C19.0878 25.6249 19.1286 25.6257 19.169 25.6257H24.5445C25.054 25.6257 25.522 25.3427 25.7613 24.8899L27.8977 21.0979C28.1286 20.6608 28.5041 20.3187 28.9592 20.1309L30.5565 19.334Z" fill="#8806CE"/>
<path d="M26.8406 12.5863V9.75342C27.2396 9.75342 27.5631 10.079 27.5631 10.4807V11.8589C27.5631 12.2607 27.2396 12.5863 26.8406 12.5863Z" fill="#08A045"/>
<path d="M25.331 10.6266L24.7499 8.58198C24.6768 8.31883 24.4364 8.13495 24.1649 8.13495H23.6326V7.9751H24.1649C24.5072 7.9751 24.8109 8.20686 24.9029 8.53899L25.4841 10.5836L25.331 10.6266Z" fill="#12130F"/>
<path d="M23.8427 7.97062C23.8427 8.66576 23.6549 9.22932 23.4232 9.22932C23.1915 9.22932 23.0037 8.66576 23.0037 7.97062C23.0037 7.27548 23.1915 6.71191 23.4232 6.71191C23.6549 6.71191 23.8427 7.2754 23.8427 7.97062Z" fill="#8806CE"/>
<path d="M14.2453 24.3816C14.7072 22.3711 13.4624 20.3644 11.465 19.8994C9.46749 19.4345 7.47378 20.6875 7.01188 22.698C6.54998 24.7085 7.7948 26.7153 9.79227 27.1802C11.7897 27.6451 13.7834 26.3921 14.2453 24.3816Z" fill="#12130F"/>
<path d="M13.3065 24.1687C13.6505 22.6798 12.7302 21.192 11.2509 20.8458C9.77161 20.4995 8.29354 21.4259 7.94953 22.9148C7.60553 24.4038 8.52586 25.8915 10.0052 26.2378C11.4845 26.584 12.9625 25.6577 13.3065 24.1687Z" fill="#838383"/>
<path d="M10.6286 25.1105C11.4898 25.1105 12.188 24.4078 12.188 23.5409C12.188 22.674 11.4898 21.9712 10.6286 21.9712C9.76729 21.9712 9.06909 22.674 9.06909 23.5409C9.06909 24.4078 9.76729 25.1105 10.6286 25.1105Z" fill="white"/>
<path d="M5.59711 23.0281C5.32666 23.0281 5.13521 22.756 5.21226 22.4852C5.54028 21.3329 6.91584 18.5436 9.43258 17.8156C13.214 16.7217 15.1917 18.4977 15.5795 19.2954C15.936 20.0287 16.587 21.7491 15.4486 23.0281H5.59711V23.0281Z" fill="#6D05A5"/>
<mask id="mask0_367_14" style="mask-type:luminance" maskUnits="userSpaceOnUse" x="5" y="17" width="12" height="7">
<path d="M5.59711 23.0281C5.32666 23.0281 5.13521 22.756 5.21226 22.4852C5.54028 21.3329 6.91584 18.5436 9.43258 17.8156C13.214 16.7217 15.1917 18.4977 15.5795 19.2954C15.936 20.0287 16.587 21.7491 15.4486 23.0281H5.59711V23.0281Z" fill="white"/>
</mask>
<g mask="url(#mask0_367_14)">
<path d="M17.3479 22.3037H4.64062V23.3695H17.3479V22.3037Z" fill="#9092F2"/>
</g>
<path d="M7.01636 21.5181H9.06355" stroke="#12130F" stroke-width="1.9947" stroke-miterlimit="10" stroke-linecap="round" stroke-linejoin="round"/>
<path d="M7.44043 21.0737H9.06331" stroke="#12130F" stroke-width="1.9947" stroke-miterlimit="10" stroke-linecap="round" stroke-linejoin="round"/>
<path d="M8.04004 20.6289H9.06364" stroke="#12130F" stroke-width="1.9947" stroke-miterlimit="10" stroke-linecap="round" stroke-linejoin="round"/>
<path d="M20.7498 2.47461C20.7498 2.47461 21.6006 3.01194 21.3702 3.84217C21.1399 4.6724 20.5493 6.20128 19.9692 5.95104C19.3892 5.70081 19.0164 5.36721 19.0164 5.36721L18.6643 4.09682L20.7498 2.47461Z" fill="#EACBB5"/>
<path d="M19.5489 5.52934L18.4124 6.80063L17.5955 5.18799L19.006 4.08398L19.5489 5.52934Z" fill="#EACBB5"/>
<path d="M19.4274 5.66452C19.4274 5.66452 19.0551 5.32962 18.9514 5.18799L19.0322 6.10296L19.4274 5.66452Z" fill="#E0AD95"/>
<path d="M19.2111 3.91485L19.54 4.13795L19.563 3.84955C19.563 3.84955 20.9473 3.80068 20.7536 2.70199C20.7967 2.94659 19.6059 1.90903 18.9852 2.13965C18.5717 2.29329 18.0162 2.81502 17.9565 3.25461C17.91 3.59678 18.12 4.00393 18.3151 4.62486L19.2111 3.91485Z" fill="#12130F"/>
<path d="M20.9751 4.50195L21.12 5.16686C21.1326 5.22447 21.0764 5.27293 21.0217 5.25177L20.6743 5.117L20.9751 4.50195Z" fill="#EACBB5"/>
<path d="M20.6843 4.47721C20.6538 4.53188 20.6717 4.60037 20.7242 4.6302C20.7767 4.66002 20.844 4.63992 20.8746 4.58525C20.9051 4.53057 20.8872 4.46209 20.8347 4.43226C20.7822 4.40243 20.7149 4.42254 20.6843 4.47721Z" fill="#12130F"/>
<path d="M20.8449 3.75058C20.8449 3.75058 20.5137 3.69926 20.4971 3.8864C20.4971 3.8864 20.4883 4.01324 20.7779 4.05026C21.0673 4.08728 21.1829 4.0711 21.218 3.95301C21.2531 3.835 21.0015 3.7581 20.8449 3.75058Z" fill="#12130F"/>
<path d="M19.6082 4.49121L21.2855 5.07782L20.7927 5.68462C20.5084 6.03456 20.0032 6.0983 19.6401 5.83254C19.5726 5.78318 19.5015 5.72736 19.4275 5.66443L19.6082 4.49121Z" fill="white"/>
<path d="M19.3335 3.82666L19.7246 4.71262L18.6121 4.23095" stroke="white" stroke-width="0.9808" stroke-miterlimit="10"/>
<path d="M17.8365 4.01877C17.8365 4.01877 18.7259 4.73785 19.4043 4.3419L20.0374 3.51331L21.9469 4.00749C21.9469 4.00749 21.8979 3.92487 21.782 3.38509C21.666 2.8453 21.4369 1.78347 19.6211 1.65271C17.822 1.5231 17.7191 3.62756 17.8365 4.01877Z" fill="#8806CE"/>
<path d="M20.0376 3.51318L21.851 3.68554L22.6622 4.12611C22.7579 4.17809 22.6992 4.31702 22.5948 4.28547L20.0376 3.51318Z" fill="#6D05A5"/>
<path d="M17.5953 5.18848C17.5953 5.18848 16.4838 5.29586 15.3145 6.92085C14.5841 7.93577 12.9539 12.1065 12.9539 12.1065C12.9539 12.1065 13.6993 13.7675 16.1321 14.4142C16.1321 14.4142 17.9496 10.9141 18.4117 6.70829C18.4582 6.28594 17.5953 5.18848 17.5953 5.18848Z" fill="#08A045"/>
<path d="M18.7329 9.39844L19.1713 10.7931C19.3221 11.3616 19.452 11.7343 18.9042 11.9396C18.2955 12.1678 17.6211 11.836 17.4261 11.2125L17.0144 9.94361L18.7329 9.39844Z" fill="#EACBB5"/>
<path d="M19.0789 9.28941L18.412 6.80077C18.412 6.80077 17.527 6.08962 16.7794 6.40213C16.1595 6.66127 15.829 7.34505 16.0091 7.99582L16.5858 10.0803L19.0789 9.28941Z" fill="#08A045"/>
<path d="M17.0144 9.94455L16.5857 10.0805L16.009 7.99609" stroke="#51858D" stroke-width="0.9477" stroke-miterlimit="10" stroke-linecap="round" stroke-linejoin="round"/>
<path d="M18.8075 10.2704L23.8659 10.7838L23.6612 11.5796L18.5428 12.0113C17.7393 11.897 17.3012 11.2625 17.565 10.4901C17.7686 9.89395 18.1888 10.1728 18.8075 10.2704Z" fill="#EACBB5"/>
<path d="M23.4506 10.7744L25.0306 10.035C25.1855 9.96249 25.3694 10.0004 25.4834 10.1285L25.9505 10.7228C26.0633 10.8495 26.0931 11.0305 26.0268 11.1871L25.9537 11.3597C25.9206 11.4379 25.8656 11.5048 25.7954 11.552L25.5782 11.6983C25.4602 11.7778 25.3031 11.7639 25.2006 11.6649L25.043 11.5125L24.3598 11.7545C24.3598 11.7545 23.8488 12.0055 23.2571 11.5811L23.4506 10.7744Z" fill="white"/>
<path d="M24.7364 10.914L24.324 11.166C24.0786 11.3808 24.0714 11.7621 24.3087 11.986C24.5315 12.1963 24.882 12.183 25.0885 11.9565L25.4714 11.6741C25.6696 11.4567 25.6537 11.1183 25.4361 10.9207C25.2381 10.7406 24.9378 10.7378 24.7364 10.914Z" fill="#12130F"/>
<path d="M23.5899 10.7546L22.8357 10.6802L23.0501 11.6318L23.5221 11.5862L23.5899 10.7546Z" fill="white"/>
<path d="M13.0024 12.2109C13.0024 12.2109 11.0327 15.4544 15.276 15.8672L22.2053 15.8757C22.8902 15.8732 23.3289 14.9796 23.2516 14.2947C23.1891 13.7408 22.7431 13.3104 22.1906 13.2708L13.0024 12.2109Z" fill="#12130F"/>
<path d="M20.4212 19.4514L20.1802 21.5922L21.8197 21.5135L22.1264 19.1235L20.4212 19.4514Z" fill="#EACBB5"/>
<path d="M21.8616 21.1839L24.1175 22.3595C24.2851 22.4441 24.3732 22.6334 24.3305 22.8172L19.8406 22.7514L20.1943 21.166L21.8616 21.1839Z" fill="#08A045"/>
<path d="M19.8408 22.7515L19.8308 23.07L23.9641 23.0903C24.1328 23.0907 24.2818 22.9797 24.3308 22.8172L19.8408 22.7515Z" fill="#12130F"/>
<path d="M20.4659 21.9333C20.4694 22.155 20.6509 22.3317 20.8711 22.3281C21.0913 22.3245 21.2669 22.1419 21.2634 21.9202C21.2598 21.6986 21.0783 21.5218 20.8581 21.5254C20.6379 21.529 20.4623 21.7117 20.4659 21.9333Z" stroke="#12130F" stroke-width="0.808" stroke-miterlimit="10"/>
<path d="M22.5364 21.499L22.1831 21.8142" stroke="#12130F" stroke-width="1.6159" stroke-miterlimit="10" stroke-linecap="round" stroke-linejoin="round"/>
<path d="M22.8669 21.6602L22.5115 21.9772" stroke="#12130F" stroke-width="1.6159" stroke-miterlimit="10" stroke-linecap="round" stroke-linejoin="round"/>
<path d="M23.2159 21.8403L22.8447 22.1715" stroke="#12130F" stroke-width="1.6159" stroke-miterlimit="10" stroke-linecap="round" stroke-linejoin="round"/>
<path d="M20.6608 13.7983L19.9836 20.259L22.3945 20.2609L23.2604 14.4577L20.6608 13.7983Z" fill="#12130F"/>
</g>
<defs>
<clipPath id="clip0_367_14">
<rect width="36" height="28" fill="white"/>
</clipPath>
</defs>
</svg>
