<svg width="16" height="16" viewBox="0 0 16 16" fill="none" xmlns="http://www.w3.org/2000/svg">
<g clip-path="url(#clip0_254_1575)">
<path d="M8.00004 15.1668C4.04671 15.1668 0.833374 11.9535 0.833374 8.00016C0.833374 4.04683 4.04671 0.833496 8.00004 0.833496C11.9534 0.833496 15.1667 4.04683 15.1667 8.00016C15.1667 11.9535 11.9534 15.1668 8.00004 15.1668ZM8.00004 1.8335C4.60004 1.8335 1.83337 4.60016 1.83337 8.00016C1.83337 11.4002 4.60004 14.1668 8.00004 14.1668C11.4 14.1668 14.1667 11.4002 14.1667 8.00016C14.1667 4.60016 11.4 1.8335 8.00004 1.8335Z" fill="#08A045"/>
<path d="M7.05331 10.3866C6.91997 10.3866 6.79331 10.3332 6.69997 10.2399L4.81333 8.35323C4.62 8.1599 4.62 7.8399 4.81333 7.64656C5.00667 7.45323 5.32667 7.45323 5.52 7.64656L7.05331 9.1799L10.48 5.75324C10.6733 5.5599 10.9933 5.5599 11.1866 5.75324C11.38 5.94657 11.38 6.26657 11.1866 6.4599L7.40664 10.2399C7.31331 10.3332 7.18664 10.3866 7.05331 10.3866Z" fill="#08A045"/>
</g>
<defs>
<clipPath id="clip0_254_1575">
<rect width="16" height="16" fill="white"/>
</clipPath>
</defs>
</svg>
