<svg width="18" height="18" viewBox="0 0 18 18" fill="none" xmlns="http://www.w3.org/2000/svg">
<path d="M8.99999 17.07C7.88999 17.07 6.77251 16.65 5.90251 15.8175C3.69001 13.6875 1.24501 10.29 2.16751 6.2475C3.00001 2.58 6.20251 0.9375 8.99999 0.9375C8.99999 0.9375 8.99999 0.9375 9.00749 0.9375C11.805 0.9375 15.0075 2.58 15.84 6.255C16.755 10.2975 14.31 13.6875 12.0975 15.8175C11.2275 16.65 10.11 17.07 8.99999 17.07ZM8.99999 2.0625C6.81751 2.0625 4.01251 3.225 3.27001 6.495C2.46001 10.0275 4.68001 13.0725 6.69001 15C7.98749 16.2525 10.02 16.2525 11.3175 15C13.32 13.0725 15.54 10.0275 14.745 6.495C13.995 3.225 11.1825 2.0625 8.99999 2.0625Z" fill="#08A045"/>
<path d="M8.06249 10.3121C7.91999 10.3121 7.77749 10.2596 7.66499 10.1471L6.54002 9.02213C6.32252 8.80463 6.32252 8.44463 6.54002 8.22713C6.75752 8.00963 7.11752 8.00963 7.33502 8.22713L8.06249 8.95463L10.665 6.35209C10.8825 6.13459 11.2425 6.13459 11.46 6.35209C11.6775 6.56959 11.6775 6.92959 11.46 7.14709L8.45999 10.1471C8.34749 10.2596 8.20499 10.3121 8.06249 10.3121Z" fill="#08A045"/>
</svg>
