<svg width="18" height="18" viewBox="0 0 18 18" fill="none" xmlns="http://www.w3.org/2000/svg">
<path d="M14.2275 17.0625H3.72748C0.914978 17.0625 0.914978 15.5025 0.914978 14.25V13.5C0.914978 12.78 1.50748 12.1875 2.22748 12.1875H15.7275C16.4475 12.1875 17.04 12.78 17.04 13.5V14.25C17.04 15.5025 17.04 17.0625 14.2275 17.0625ZM2.22748 13.3125C2.12248 13.3125 2.03998 13.395 2.03998 13.5V14.25C2.03998 15.48 2.03998 15.9375 3.72748 15.9375H14.2275C15.915 15.9375 15.915 15.48 15.915 14.25V13.5C15.915 13.395 15.8325 13.3125 15.7275 13.3125H2.22748Z" fill="#08A045"/>
<path d="M15.54 13.3125H2.45252C2.14502 13.3125 1.89002 13.0575 1.89002 12.75V9.75C1.89002 6.675 4.07252 3.975 7.07252 3.3375C7.515 3.24 7.98 3.1875 8.4525 3.1875H9.54C10.02 3.1875 10.485 3.24 10.9275 3.3375C13.9275 3.9825 16.1025 6.6825 16.1025 9.75V12.75C16.1025 13.0575 15.855 13.3125 15.54 13.3125ZM3.01502 12.1875H14.9775V9.75C14.9775 7.2075 13.1775 4.9725 10.6875 4.4325C10.32 4.35 9.9375 4.3125 9.54 4.3125H8.4525C8.0625 4.3125 7.68 4.35 7.31252 4.4325C4.82252 4.965 3.01502 7.2 3.01502 9.75V12.1875Z" fill="#08A045"/>
<path d="M7.1925 4.4475C6.945 4.4475 6.72 4.2825 6.6525 4.035C6.5925 3.8175 6.5625 3.6 6.5625 3.375C6.5625 2.0325 7.6575 0.9375 9 0.9375C10.3425 0.9375 11.4375 2.0325 11.4375 3.375C11.4375 3.6 11.4075 3.8175 11.3475 4.035C11.2725 4.32 10.9875 4.5 10.6875 4.4325C10.32 4.35 9.9375 4.3125 9.54 4.3125H8.4525C8.0625 4.3125 7.68 4.35 7.31252 4.4325C7.27502 4.44 7.2375 4.4475 7.1925 4.4475ZM8.4525 3.1875H9.54C9.795 3.1875 10.0575 3.2025 10.305 3.2325C10.2375 2.5725 9.675 2.0625 9 2.0625C8.325 2.0625 7.77 2.5725 7.695 3.2325C7.95 3.2025 8.1975 3.1875 8.4525 3.1875Z" fill="#08A045"/>
<path d="M11.25 8.8125H6.75C6.4425 8.8125 6.1875 8.5575 6.1875 8.25C6.1875 7.9425 6.4425 7.6875 6.75 7.6875H11.25C11.5575 7.6875 11.8125 7.9425 11.8125 8.25C11.8125 8.5575 11.5575 8.8125 11.25 8.8125Z" fill="#08A045"/>
</svg>
