<svg width="18" height="18" viewBox="0 0 18 18" fill="none" xmlns="http://www.w3.org/2000/svg">
<path d="M11.9701 15.9898C11.8276 15.9898 11.6851 15.9373 11.5726 15.8248L10.4326 14.6848C10.2151 14.4673 10.2151 14.1073 10.4326 13.8898C10.6501 13.6723 11.0101 13.6723 11.2276 13.8898L11.9701 14.6323L13.8526 12.7498C14.0701 12.5323 14.4301 12.5323 14.6476 12.7498C14.8651 12.9673 14.8651 13.3273 14.6476 13.5448L12.3676 15.8248C12.2551 15.9373 12.1126 15.9898 11.9701 15.9898Z" fill="#08A045"/>
<path d="M9.12015 8.715C9.09765 8.715 9.08265 8.715 9.06015 8.715C9.02265 8.7075 8.97015 8.7075 8.92515 8.715C6.75014 8.6475 5.10765 6.9375 5.10765 4.83C5.10015 3.795 5.50514 2.82 6.24014 2.085C6.97514 1.35 7.95015 0.9375 8.99265 0.9375C11.1376 0.9375 12.8851 2.685 12.8851 4.83C12.8851 6.9375 11.2426 8.64 9.14265 8.715C9.13515 8.715 9.12765 8.715 9.12015 8.715ZM8.99265 2.0625C8.25015 2.0625 7.56015 2.355 7.03515 2.8725C6.51765 3.3975 6.23265 4.0875 6.23265 4.8225C6.23265 6.3225 7.40264 7.5375 8.89515 7.5825C8.94015 7.575 9.03765 7.575 9.13515 7.5825C10.6126 7.515 11.7601 6.3075 11.7601 4.8225C11.7601 3.3075 10.5151 2.0625 8.99265 2.0625Z" fill="#08A045"/>
<path d="M8.99265 16.9198C7.46262 16.9198 6.01512 16.5223 4.92012 15.7873C3.87762 15.0898 3.30762 14.1373 3.30762 13.1098C3.30762 12.0823 3.88512 11.1373 4.92012 10.4473C7.16262 8.94728 10.8076 8.94728 13.0501 10.4473C13.3051 10.6198 13.3801 10.9723 13.2076 11.2273C13.0351 11.4898 12.6826 11.5573 12.4276 11.3848C10.5601 10.1398 7.41012 10.1398 5.54262 11.3848C4.82262 11.8648 4.43262 12.4723 4.43262 13.1098C4.43262 13.7473 4.82262 14.3698 5.54262 14.8498C6.45012 15.4573 7.67265 15.7873 8.98515 15.7873C9.29265 15.7873 9.54765 16.0423 9.54765 16.3498C9.54765 16.6573 9.30015 16.9198 8.99265 16.9198Z" fill="#08A045"/>
</svg>
