<svg width="20" height="20" viewBox="0 0 20 20" fill="none" xmlns="http://www.w3.org/2000/svg">
<path d="M9.99996 17.7082H5.83329C2.79163 17.7082 1.04163 15.9582 1.04163 12.9165V7.08317C1.04163 4.0415 2.79163 2.2915 5.83329 2.2915H14.1666C17.2083 2.2915 18.9583 4.0415 18.9583 7.08317V9.58317C18.9583 9.92484 18.675 10.2082 18.3333 10.2082C17.9916 10.2082 17.7083 9.92484 17.7083 9.58317V7.08317C17.7083 4.69984 16.55 3.5415 14.1666 3.5415H5.83329C3.44996 3.5415 2.29163 4.69984 2.29163 7.08317V12.9165C2.29163 15.2998 3.44996 16.4582 5.83329 16.4582H9.99996C10.3416 16.4582 10.625 16.7415 10.625 17.0832C10.625 17.4248 10.3416 17.7082 9.99996 17.7082Z" fill="#FDFDFF"/>
<path d="M9.99979 10.7248C9.29979 10.7248 8.59146 10.5082 8.04978 10.0665L5.44144 7.98314C5.17478 7.76647 5.12478 7.37481 5.34144 7.10815C5.55811 6.84148 5.94977 6.79981 6.21643 7.00815L8.82479 9.0915C9.45813 9.59984 10.5331 9.59984 11.1665 9.0915L13.7748 7.00815C14.0415 6.79148 14.4331 6.83315 14.6498 7.10815C14.8665 7.37481 14.8248 7.7748 14.5498 7.98314L11.9415 10.0665C11.4081 10.5082 10.6998 10.7248 9.99979 10.7248Z" fill="#FDFDFF"/>
<path d="M13.1834 18.1495C12.8667 18.1495 12.5667 18.0328 12.35 17.8162C12.0917 17.5578 11.975 17.1828 12.0334 16.7912L12.1917 15.6662C12.2334 15.3745 12.4084 15.0245 12.6167 14.8162L15.5666 11.8662C15.9666 11.4662 16.3584 11.2578 16.7834 11.2162C17.3 11.1662 17.8166 11.3828 18.3 11.8662C18.7833 12.3495 19 12.8578 18.95 13.3828C18.9083 13.7995 18.6916 14.1995 18.3 14.5995L15.35 17.5495C15.1417 17.7578 14.7916 17.9328 14.5 17.9745L13.375 18.1328C13.3083 18.1412 13.25 18.1495 13.1834 18.1495ZM16.925 12.4578C16.9166 12.4578 16.9083 12.4578 16.9 12.4578C16.7833 12.4662 16.625 12.5745 16.45 12.7495L13.5 15.6995C13.475 15.7245 13.4333 15.8078 13.4333 15.8412L13.2834 16.8828L14.325 16.7328C14.3584 16.7245 14.4416 16.6828 14.4666 16.6578L17.4166 13.7078C17.5916 13.5245 17.7 13.3745 17.7084 13.2578C17.725 13.0912 17.5583 12.8912 17.4166 12.7495C17.2833 12.6162 17.0916 12.4578 16.925 12.4578Z" fill="#FDFDFF"/>
<path d="M17.4334 15.2089C17.375 15.2089 17.3167 15.2006 17.2667 15.1839C16.1667 14.8756 15.2917 14.0006 14.9834 12.9006C14.8917 12.5673 15.0834 12.2256 15.4167 12.1256C15.75 12.0339 16.0917 12.2256 16.1834 12.5589C16.375 13.2423 16.9167 13.7839 17.6 13.9756C17.9334 14.0673 18.125 14.4173 18.0334 14.7506C17.9584 15.0256 17.7084 15.2089 17.4334 15.2089Z" fill="#FDFDFF"/>
</svg>
