<svg width="18" height="24" viewBox="0 0 18 24" fill="none" xmlns="http://www.w3.org/2000/svg">
<path d="M17.5 8.45C16.45 3.83 12.42 1.75 8.87999 1.75C8.87999 1.75 8.87999 1.75 8.86999 1.75C5.33999 1.75 1.29999 3.82 0.249986 8.44C-0.920014 13.6 2.23999 17.97 5.09999 20.72C6.15999 21.74 7.51999 22.25 8.87999 22.25C10.24 22.25 11.6 21.74 12.65 20.72C15.51 17.97 18.67 13.61 17.5 8.45Z" fill="#8806CE"/>
<path d="M8.88047 13.4602C10.6202 13.4602 12.0305 12.0499 12.0305 10.3102C12.0305 8.57046 10.6202 7.16016 8.88047 7.16016C7.14077 7.16016 5.73047 8.57046 5.73047 10.3102C5.73047 12.0499 7.14077 13.4602 8.88047 13.4602Z" fill="#FDFDFF"/>
</svg>
