<svg width="20" height="20" viewBox="0 0 20 20" fill="none" xmlns="http://www.w3.org/2000/svg">
<path d="M16.7018 5.68275L11.9018 2.32442C10.5935 1.40775 8.58516 1.45775 7.32682 2.43275L3.15182 5.69109C2.31849 6.34109 1.66016 7.67442 1.66016 8.72443V14.4744C1.66016 16.5994 3.38516 18.3328 5.51016 18.3328H14.4935C16.6185 18.3328 18.3435 16.6078 18.3435 14.4828V8.83276C18.3435 7.70775 17.6185 6.32442 16.7018 5.68275ZM10.6268 14.9994C10.6268 15.3411 10.3435 15.6244 10.0018 15.6244C9.66016 15.6244 9.37683 15.3411 9.37683 14.9994V12.4994C9.37683 12.1578 9.66016 11.8744 10.0018 11.8744C10.3435 11.8744 10.6268 12.1578 10.6268 12.4994V14.9994Z" fill="#FDFDFF"/>
</svg>
