<svg width="20" height="20" viewBox="0 0 20 20" fill="none" xmlns="http://www.w3.org/2000/svg">
<path d="M16.125 15.1168C15.7917 15.1168 15.5083 14.8834 15.4417 14.5584L15.2667 13.7918C15.1917 13.4668 14.9333 13.2084 14.6167 13.1334L13.8333 12.9501C13.5167 12.8834 13.2917 12.6001 13.2917 12.2668C13.2917 11.9334 13.5167 11.6417 13.8417 11.5751L14.6167 11.4001C14.9417 11.3251 15.2 11.0668 15.275 10.7501L15.4583 9.96675C15.525 9.65008 15.8167 9.42508 16.15 9.42508C16.4833 9.42508 16.7667 9.65842 16.8333 9.98342L17.0083 10.7501C17.0833 11.0751 17.3417 11.3334 17.6583 11.4084L18.4417 11.5918C18.7583 11.6584 18.9833 11.9418 18.9833 12.2751C18.9833 12.6084 18.7583 12.8918 18.4333 12.9668L17.6583 13.1418C17.3333 13.2168 17.075 13.4751 17.0083 13.7918L16.825 14.5751C16.7583 14.8918 16.4667 15.1168 16.125 15.1168ZM15.6583 12.2668C15.8417 12.4001 16 12.5584 16.1333 12.7418C16.2667 12.5584 16.425 12.4001 16.6083 12.2668C16.425 12.1334 16.2667 11.9751 16.1333 11.7917C16 11.9751 15.8417 12.1334 15.6583 12.2668Z" fill="#888987"/>
<path d="M13.55 15.0333C12.1917 15.0333 10.575 14.5167 10.575 12.0583V7.35C10.575 4.89167 12.1917 4.375 13.55 4.375C14.9083 4.375 16.525 4.89167 16.525 7.35V7.98333C16.525 8.325 16.2417 8.60833 15.9 8.60833C15.5583 8.60833 15.275 8.325 15.275 7.98333V7.35C15.275 6.09167 14.8083 5.625 13.55 5.625C12.2917 5.625 11.825 6.09167 11.825 7.35V12.0583C11.825 13.3167 12.2917 13.7833 13.55 13.7833C13.8917 13.7833 14.175 14.0667 14.175 14.4083C14.175 14.75 13.8917 15.0333 13.55 15.0333Z" fill="#888987"/>
<path d="M5.425 15.0333C4.06667 15.0333 2.45 14.5167 2.45 12.0583V7.35C2.45 4.89167 4.06667 4.375 5.425 4.375C6.78333 4.375 8.4 4.89167 8.4 7.35V12.0583C8.4 14.5167 6.78333 15.0333 5.425 15.0333ZM5.425 5.625C4.16667 5.625 3.7 6.09167 3.7 7.35V12.0583C3.7 13.3167 4.16667 13.7833 5.425 13.7833C6.68333 13.7833 7.15 13.3167 7.15 12.0583V7.35C7.15 6.09167 6.68333 5.625 5.425 5.625Z" fill="#888987"/>
<path d="M11.1917 10.3333H7.77502C7.43335 10.3333 7.15002 10.05 7.15002 9.70833C7.15002 9.36667 7.43335 9.08333 7.77502 9.08333H11.1917C11.5333 9.08333 11.8167 9.36667 11.8167 9.70833C11.8167 10.05 11.5333 10.3333 11.1917 10.3333Z" fill="#888987"/>
<path d="M17.725 9.63333C17.3833 9.63333 17.1 9.35 17.1 9.00833V7.75004C17.1 7.40837 17.3833 7.12504 17.725 7.12504C18.0667 7.12504 18.35 7.40837 18.35 7.75004V9.00833C18.35 9.35 18.0667 9.63333 17.725 9.63333Z" fill="#888987"/>
<path d="M1.25 12.2917C0.908333 12.2917 0.625 12.0083 0.625 11.6667V7.7417C0.625 7.40003 0.908333 7.1167 1.25 7.1167C1.59167 7.1167 1.875 7.40003 1.875 7.7417V11.6667C1.875 12.0083 1.59167 12.2917 1.25 12.2917Z" fill="#888987"/>
</svg>
