<svg width="20" height="20" viewBox="0 0 20 20" fill="none" xmlns="http://www.w3.org/2000/svg">
<path d="M14.8243 18.9584H5.17435C2.89102 18.9584 1.04102 17.1001 1.04102 14.8167V8.64175C1.04102 7.50839 1.74102 6.08339 2.64102 5.38339L7.13268 1.88339C8.48268 0.833394 10.641 0.783394 12.041 1.76672L17.191 5.37506C18.1827 6.06672 18.9577 7.55006 18.9577 8.75842V14.8251C18.9577 17.1001 17.1077 18.9584 14.8243 18.9584ZM7.89935 2.86672L3.40768 6.36672C2.81602 6.83339 2.29102 7.89172 2.29102 8.64175V14.8167C2.29102 16.4084 3.58268 17.7084 5.17435 17.7084H14.8243C16.416 17.7084 17.7077 16.4168 17.7077 14.8251V8.75842C17.7077 7.95839 17.1327 6.85006 16.4743 6.40006L11.3243 2.79172C10.3743 2.12506 8.80768 2.15839 7.89935 2.86672Z" fill="#FDFDFF"/>
<path d="M9.99935 15.6251C9.65768 15.6251 9.37435 15.3417 9.37435 15.0001V12.5001C9.37435 12.1584 9.65768 11.8751 9.99935 11.8751C10.341 11.8751 10.6243 12.1584 10.6243 12.5001V15.0001C10.6243 15.3417 10.341 15.6251 9.99935 15.6251Z" fill="#FDFDFF"/>
</svg>
