<svg width="20" height="20" viewBox="0 0 20 20" fill="none" xmlns="http://www.w3.org/2000/svg">
<path d="M13.3332 18.9582H6.66653C2.81653 18.9582 2.09986 17.1666 1.91653 15.4249L1.29153 8.74991C1.19986 7.87489 1.17486 6.58322 2.04153 5.61656C2.79153 4.78322 4.0332 4.38322 5.8332 4.38322H14.1665C15.9749 4.38322 17.2165 4.79156 17.9582 5.61656C18.8249 6.58322 18.7999 7.87489 18.7082 8.75825L18.0832 15.4166C17.8999 17.1666 17.1832 18.9582 13.3332 18.9582ZM5.8332 5.62489C4.42486 5.62489 3.4582 5.89989 2.96653 6.44989C2.5582 6.89989 2.42486 7.59156 2.5332 8.62492L3.1582 15.2999C3.29986 16.6166 3.6582 17.7082 6.66653 17.7082H13.3332C16.3332 17.7082 16.6999 16.6166 16.8415 15.2916L17.4665 8.63325C17.5749 7.59156 17.4415 6.89989 17.0332 6.44989C16.5415 5.89989 15.5749 5.62489 14.1665 5.62489H5.8332Z" fill="#888987"/>
<path d="M13.3332 5.62508C12.9915 5.62508 12.7082 5.34175 12.7082 5.00008V4.33341C12.7082 2.85008 12.7082 2.29175 10.6665 2.29175H9.33321C7.29155 2.29175 7.29155 2.85008 7.29155 4.33341V5.00008C7.29155 5.34175 7.00821 5.62508 6.66655 5.62508C6.32488 5.62508 6.04155 5.34175 6.04155 5.00008V4.33341C6.04155 2.86675 6.04155 1.04175 9.33321 1.04175H10.6665C13.9582 1.04175 13.9582 2.86675 13.9582 4.33341V5.00008C13.9582 5.34175 13.6749 5.62508 13.3332 5.62508Z" fill="#888987"/>
<path d="M9.99988 13.9584C7.70821 13.9584 7.70821 12.5417 7.70821 11.6917V10.8334C7.70821 9.65841 7.99155 9.37508 9.16655 9.37508H10.8332C12.0082 9.37508 12.2915 9.65841 12.2915 10.8334V11.6667C12.2915 12.5334 12.2915 13.9584 9.99988 13.9584ZM8.95821 10.6251C8.95821 10.6917 8.95821 10.7667 8.95821 10.8334V11.6917C8.95821 12.5501 8.95821 12.7084 9.99988 12.7084C11.0415 12.7084 11.0415 12.5751 11.0415 11.6834V10.8334C11.0415 10.7667 11.0415 10.6917 11.0415 10.6251C10.9749 10.6251 10.8999 10.6251 10.8332 10.6251H9.16655C9.09988 10.6251 9.02488 10.6251 8.95821 10.6251Z" fill="#888987"/>
<path d="M11.6665 12.3086C11.3582 12.3086 11.0832 12.0752 11.0499 11.7586C11.0082 11.4169 11.2499 11.1002 11.5915 11.0586C13.7915 10.7836 15.8999 9.95025 17.6749 8.65858C17.9499 8.45025 18.3415 8.51692 18.5499 8.80025C18.7499 9.07525 18.6915 9.46691 18.4082 9.67525C16.4582 11.0919 14.1582 12.0002 11.7415 12.3086C11.7165 12.3086 11.6915 12.3086 11.6665 12.3086Z" fill="#888987"/>
<path d="M8.33321 12.3175C8.30821 12.3175 8.28321 12.3175 8.25821 12.3175C5.97487 12.0592 3.74987 11.2258 1.82487 9.90916C1.54154 9.7175 1.46654 9.32583 1.65821 9.0425C1.84987 8.75916 2.24154 8.68416 2.52487 8.87583C4.28321 10.0758 6.30821 10.8342 8.39155 11.0758C8.73321 11.1175 8.98321 11.4258 8.94155 11.7675C8.91655 12.0842 8.64988 12.3175 8.33321 12.3175Z" fill="#888987"/>
</svg>
