<svg width="16" height="16" viewBox="0 0 16 16" fill="none" xmlns="http://www.w3.org/2000/svg">
<g clip-path="url(#clip0_315_46468)">
<path d="M12.6467 15.1668H3.31335C0.813355 15.1668 0.813354 13.7802 0.813354 12.6668V12.0002C0.813354 11.3602 1.34002 10.8335 1.98002 10.8335H13.98C14.62 10.8335 15.1467 11.3602 15.1467 12.0002V12.6668C15.1467 13.7802 15.1467 15.1668 12.6467 15.1668ZM1.98002 11.8335C1.88669 11.8335 1.81335 11.9068 1.81335 12.0002V12.6668C1.81335 13.7602 1.81335 14.1668 3.31335 14.1668H12.6467C14.1467 14.1668 14.1467 13.7602 14.1467 12.6668V12.0002C14.1467 11.9068 14.0734 11.8335 13.98 11.8335H1.98002Z" fill="#FDFDFF"/>
<path d="M13.8134 11.8335H2.18005C1.90672 11.8335 1.68005 11.6068 1.68005 11.3335V8.66683C1.68005 5.9335 3.62005 3.5335 6.28672 2.96683C6.68004 2.88016 7.09337 2.8335 7.51337 2.8335H8.48004C8.90671 2.8335 9.32004 2.88016 9.71337 2.96683C12.38 3.54016 14.3134 5.94016 14.3134 8.66683V11.3335C14.3134 11.6068 14.0934 11.8335 13.8134 11.8335ZM2.68005 10.8335H13.3134V8.66683C13.3134 6.40683 11.7134 4.42016 9.50004 3.94016C9.17337 3.86683 8.83337 3.8335 8.48004 3.8335H7.51337C7.16671 3.8335 6.82671 3.86683 6.50005 3.94016C4.28672 4.4135 2.68005 6.40016 2.68005 8.66683V10.8335Z" fill="#FDFDFF"/>
<path d="M6.39337 3.9535C6.17337 3.9535 5.97337 3.80683 5.91337 3.58683C5.86004 3.3935 5.83337 3.20016 5.83337 3.00016C5.83337 1.80683 6.80671 0.833496 8.00004 0.833496C9.19337 0.833496 10.1667 1.80683 10.1667 3.00016C10.1667 3.20016 10.14 3.3935 10.0867 3.58683C10.02 3.84016 9.76671 4.00016 9.50004 3.94016C9.17337 3.86683 8.83337 3.8335 8.48004 3.8335H7.51337C7.16671 3.8335 6.82671 3.86683 6.50005 3.94016C6.46672 3.94683 6.43337 3.9535 6.39337 3.9535ZM7.51337 2.8335H8.48004C8.70671 2.8335 8.94004 2.84683 9.16004 2.8735C9.10004 2.28683 8.60004 1.8335 8.00004 1.8335C7.40004 1.8335 6.90671 2.28683 6.84004 2.8735C7.06671 2.84683 7.28671 2.8335 7.51337 2.8335Z" fill="#FDFDFF"/>
<path d="M10 7.8335H6.00004C5.72671 7.8335 5.50004 7.60683 5.50004 7.3335C5.50004 7.06016 5.72671 6.8335 6.00004 6.8335H10C10.2734 6.8335 10.5 7.06016 10.5 7.3335C10.5 7.60683 10.2734 7.8335 10 7.8335Z" fill="#FDFDFF"/>
</g>
<defs>
<clipPath id="clip0_315_46468">
<rect width="16" height="16" fill="white"/>
</clipPath>
</defs>
</svg>
