<svg width="16" height="16" viewBox="0 0 16 16" fill="none" xmlns="http://www.w3.org/2000/svg">
<path d="M9.8 15.1673H6.20001C2.90667 15.1673 1.50667 13.7606 1.50667 10.474V7.48063C1.50667 7.2073 1.73334 6.98063 2.00667 6.98063C2.28001 6.98063 2.50667 7.2073 2.50667 7.48063V10.474C2.50667 13.2006 3.47334 14.1673 6.20001 14.1673H9.79333C12.52 14.1673 13.4867 13.2006 13.4867 10.474V7.48063C13.4867 7.2073 13.7133 6.98063 13.9867 6.98063C14.26 6.98063 14.4867 7.2073 14.4867 7.48063V10.474C14.4933 13.7606 13.0867 15.1673 9.8 15.1673Z" fill="#FDFDFF"/>
<path d="M8 8.50016C7.26667 8.50016 6.6 8.2135 6.12667 7.68683C5.65333 7.16016 5.43333 6.4735 5.50667 5.74016L5.95333 1.28683C5.98 1.0335 6.19333 0.833496 6.45333 0.833496H9.56667C9.82667 0.833496 10.04 1.02683 10.0667 1.28683L10.5133 5.74016C10.5867 6.4735 10.3667 7.16016 9.89333 7.68683C9.4 8.2135 8.73333 8.50016 8 8.50016ZM6.9 1.8335L6.5 5.84016C6.45333 6.28683 6.58667 6.70683 6.86667 7.0135C7.43333 7.64016 8.56667 7.64016 9.13333 7.0135C9.41333 6.70016 9.54667 6.28016 9.5 5.84016L9.1 1.8335H6.9Z" fill="#FDFDFF"/>
<path d="M12.2067 8.50016C10.8533 8.50016 9.64667 7.40683 9.50667 6.06016L9.04 1.38683C9.02667 1.24683 9.07333 1.10683 9.16667 1.00016C9.26 0.893496 9.39333 0.833496 9.54 0.833496H11.5733C13.5333 0.833496 14.4467 1.6535 14.72 3.66683L14.9067 5.52016C14.9867 6.30683 14.7467 7.0535 14.2333 7.62016C13.72 8.18683 13 8.50016 12.2067 8.50016ZM10.0933 1.8335L10.5067 5.96016C10.5933 6.7935 11.3667 7.50016 12.2067 7.50016C12.7133 7.50016 13.1667 7.30683 13.4933 6.9535C13.8133 6.60016 13.96 6.12683 13.9133 5.62016L13.7267 3.78683C13.52 2.28016 13.0333 1.8335 11.5733 1.8335H10.0933Z" fill="#FDFDFF"/>
<path d="M3.76001 8.50016C2.96668 8.50016 2.24668 8.18683 1.73335 7.62016C1.22001 7.0535 0.980014 6.30683 1.06001 5.52016L1.24001 3.68683C1.52001 1.6535 2.43335 0.833496 4.39335 0.833496H6.42668C6.56668 0.833496 6.7 0.893496 6.8 1.00016C6.9 1.10683 6.94 1.24683 6.92667 1.38683L6.46001 6.06016C6.32001 7.40683 5.11335 8.50016 3.76001 8.50016ZM4.39335 1.8335C2.93335 1.8335 2.44668 2.2735 2.23335 3.80016L2.05335 5.62016C2.00001 6.12683 2.15335 6.60016 2.47335 6.9535C2.79335 7.30683 3.24668 7.50016 3.76001 7.50016C4.60001 7.50016 5.38001 6.7935 5.46001 5.96016L5.87335 1.8335H4.39335Z" fill="#FDFDFF"/>
<path d="M9.66667 15.1668H6.33333C6.06 15.1668 5.83333 14.9402 5.83333 14.6668V13.0002C5.83333 11.6002 6.6 10.8335 8 10.8335C9.4 10.8335 10.1667 11.6002 10.1667 13.0002V14.6668C10.1667 14.9402 9.94 15.1668 9.66667 15.1668ZM6.83333 14.1668H9.16667V13.0002C9.16667 12.1602 8.84 11.8335 8 11.8335C7.16 11.8335 6.83333 12.1602 6.83333 13.0002V14.1668Z" fill="#FDFDFF"/>
</svg>
