<svg width="16" height="16" viewBox="0 0 16 16" fill="none" xmlns="http://www.w3.org/2000/svg">
<path d="M7.99998 15.1735C7.01331 15.1735 6.02 14.8002 5.24666 14.0602C3.28 12.1668 1.10666 9.14683 1.92666 5.5535C2.66666 2.2935 5.51333 0.833496 7.99998 0.833496C7.99998 0.833496 7.99998 0.833496 8.00664 0.833496C10.4933 0.833496 13.34 2.2935 14.08 5.56016C14.8933 9.1535 12.72 12.1668 10.7533 14.0602C9.97998 14.8002 8.98664 15.1735 7.99998 15.1735ZM7.99998 1.8335C6.06 1.8335 3.56666 2.86683 2.90666 5.7735C2.18666 8.9135 4.16 11.6202 5.94666 13.3335C7.09998 14.4468 8.90664 14.4468 10.06 13.3335C11.84 11.6202 13.8133 8.9135 13.1066 5.7735C12.44 2.86683 9.93998 1.8335 7.99998 1.8335Z" fill="#FDFDFF"/>
<path d="M7.16664 9.1665C7.03998 9.1665 6.91331 9.11983 6.81331 9.01983L5.81334 8.01983C5.62 7.8265 5.62 7.5065 5.81334 7.31316C6.00667 7.11983 6.32667 7.11983 6.52 7.31316L7.16664 7.95983L9.47998 5.64646C9.67331 5.45313 9.99331 5.45313 10.1866 5.64646C10.38 5.8398 10.38 6.1598 10.1866 6.35313L7.51998 9.01983C7.41998 9.11983 7.29331 9.1665 7.16664 9.1665Z" fill="#FDFDFF"/>
</svg>
