<svg width="16" height="16" viewBox="0 0 16 16" fill="none" xmlns="http://www.w3.org/2000/svg">
<path d="M10.64 14.2133C10.5134 14.2133 10.3867 14.1666 10.2867 14.0666L9.27336 13.0533C9.08002 12.86 9.08002 12.54 9.27336 12.3466C9.46669 12.1533 9.78669 12.1533 9.98002 12.3466L10.64 13.0066L12.3134 11.3333C12.5067 11.14 12.8267 11.14 13.02 11.3333C13.2134 11.5266 13.2134 11.8466 13.02 12.04L10.9934 14.0666C10.8934 14.1666 10.7667 14.2133 10.64 14.2133Z" fill="#FDFDFF"/>
<path d="M8.10676 7.74683C8.08676 7.74683 8.07342 7.74683 8.05342 7.74683C8.02009 7.74016 7.97342 7.74016 7.93342 7.74683C6.00008 7.68683 4.54009 6.16683 4.54009 4.2935C4.53342 3.3735 4.89342 2.50683 5.54675 1.8535C6.20008 1.20016 7.06676 0.833496 7.99342 0.833496C9.90009 0.833496 11.4534 2.38683 11.4534 4.2935C11.4534 6.16683 9.99342 7.68016 8.12676 7.74683C8.12009 7.74683 8.11342 7.74683 8.10676 7.74683ZM7.99342 1.8335C7.33342 1.8335 6.72009 2.0935 6.25342 2.5535C5.79342 3.02016 5.54009 3.6335 5.54009 4.28683C5.54009 5.62016 6.58008 6.70016 7.90676 6.74016C7.94676 6.7335 8.03342 6.7335 8.12009 6.74016C9.43342 6.68016 10.4534 5.60683 10.4534 4.28683C10.4534 2.94016 9.34676 1.8335 7.99342 1.8335Z" fill="#FDFDFF"/>
<path d="M7.99342 15.04C6.6334 15.04 5.34673 14.6866 4.3734 14.0333C3.44673 13.4133 2.94006 12.5666 2.94006 11.6533C2.94006 10.74 3.4534 9.89996 4.3734 9.28663C6.36673 7.9533 9.60676 7.9533 11.6001 9.28663C11.8268 9.43996 11.8934 9.7533 11.7401 9.97996C11.5868 10.2133 11.2734 10.2733 11.0468 10.12C9.38676 9.0133 6.58673 9.0133 4.92673 10.12C4.28673 10.5466 3.94006 11.0866 3.94006 11.6533C3.94006 12.22 4.28673 12.7733 4.92673 13.2C5.7334 13.74 6.82009 14.0333 7.98676 14.0333C8.26009 14.0333 8.48676 14.26 8.48676 14.5333C8.48676 14.8066 8.26676 15.04 7.99342 15.04Z" fill="#FDFDFF"/>
</svg>
