<svg width="20" height="20" viewBox="0 0 20 20" fill="none" xmlns="http://www.w3.org/2000/svg">
<path d="M7.42565 17.2247C7.26732 17.2247 7.10898 17.1664 6.98398 17.0414C6.74232 16.7997 6.74232 16.3997 6.98398 16.1581L12.4173 10.7247C12.8173 10.3247 12.8173 9.67475 12.4173 9.27475L6.98398 3.84144C6.74232 3.59977 6.74232 3.19977 6.98398 2.95811C7.22565 2.71644 7.62565 2.71644 7.86732 2.95811L13.3007 8.39141C13.7257 8.81641 13.9673 9.39141 13.9673 9.99975C13.9673 10.6081 13.734 11.1831 13.3007 11.6081L7.86732 17.0414C7.74232 17.1581 7.58398 17.2247 7.42565 17.2247Z" fill="#FDFDFF"/>
</svg>
