<svg width="24" height="24" viewBox="0 0 24 24" fill="none" xmlns="http://www.w3.org/2000/svg">
<path d="M3.74023 1.25C4.92941 1.2501 5.91576 2.0507 6.22949 3.12012H18.7305C20.8331 3.12037 22.4394 4.83711 22.2881 6.93359L21.748 14.4336V14.4375C21.6083 16.2543 20.0259 17.74 18.1904 17.7402H7.54004C5.46307 17.7402 3.8251 15.966 4.00293 13.8955L4.83301 3.9375L4.83594 3.81934C4.82188 3.23655 4.34003 2.75012 3.74023 2.75H2C1.58579 2.75 1.25 2.41421 1.25 2C1.25 1.58579 1.58579 1.25 2 1.25H3.74023ZM5.49707 14.0225V14.0244C5.39505 15.2138 6.3371 16.2402 7.54004 16.2402H18.1904C19.2346 16.24 20.1717 15.3652 20.252 14.3223L20.792 6.82617C20.8804 5.60318 19.9672 4.62037 18.7305 4.62012H6.28027L5.49707 14.0225Z" fill="#B8B8B7"/>
<path d="M16.75 20.75C16.75 20.4738 16.5262 20.25 16.25 20.25C15.9738 20.25 15.75 20.4738 15.75 20.75C15.75 21.0262 15.9738 21.25 16.25 21.25C16.5262 21.25 16.75 21.0262 16.75 20.75ZM18.25 20.75C18.25 21.8546 17.3546 22.75 16.25 22.75C15.1454 22.75 14.25 21.8546 14.25 20.75C14.25 19.6454 15.1454 18.75 16.25 18.75C17.3546 18.75 18.25 19.6454 18.25 20.75Z" fill="#B8B8B7"/>
<path d="M8.75 20.75C8.75 20.4738 8.52616 20.25 8.25 20.25C7.97384 20.25 7.75 20.4738 7.75 20.75C7.75 21.0262 7.97384 21.25 8.25 21.25C8.52616 21.25 8.75 21.0262 8.75 20.75ZM10.25 20.75C10.25 21.8546 9.35456 22.75 8.25 22.75C7.14544 22.75 6.25 21.8546 6.25 20.75C6.25 19.6454 7.14544 18.75 8.25 18.75C9.35456 18.75 10.25 19.6454 10.25 20.75Z" fill="#B8B8B7"/>
<path d="M21 7.25C21.4142 7.25 21.75 7.58579 21.75 8C21.75 8.41421 21.4142 8.75 21 8.75H9C8.58579 8.75 8.25 8.41421 8.25 8C8.25 7.58579 8.58579 7.25 9 7.25H21Z" fill="#B8B8B7"/>
</svg>
