<svg width="34" height="34" viewBox="0 0 34 34" fill="none" xmlns="http://www.w3.org/2000/svg">
<g clip-path="url(#clip0_116_313)">
<mask id="mask0_116_313" style="mask-type:luminance" maskUnits="userSpaceOnUse" x="0" y="0" width="34" height="34">
<path d="M34 0H0V34H34V0Z" fill="white"/>
</mask>
<g mask="url(#mask0_116_313)">
<path d="M29.2118 11.9709C27.7243 5.42591 22.0151 2.47925 17.0001 2.47925C17.0001 2.47925 17.0001 2.47925 16.986 2.47925C11.9851 2.47925 6.26181 5.41175 4.77431 11.9567C3.11681 19.2667 7.59348 25.4576 11.6451 29.3534C13.1468 30.7984 15.0735 31.5209 17.0001 31.5209C18.9268 31.5209 20.8535 30.7984 22.341 29.3534C26.3926 25.4576 30.8693 19.2809 29.2118 11.9709ZM17.0001 19.0684C14.5351 19.0684 12.5376 17.0709 12.5376 14.6059C12.5376 12.1409 14.5351 10.1434 17.0001 10.1434C19.4651 10.1434 21.4626 12.1409 21.4626 14.6059C21.4626 17.0709 19.4651 19.0684 17.0001 19.0684Z" fill="#8806CE"/>
</g>
</g>
<defs>
<clipPath id="clip0_116_313">
<rect width="34" height="34" fill="white"/>
</clipPath>
</defs>
</svg>
