<svg width="20" height="20" viewBox="0 0 20 20" fill="none" xmlns="http://www.w3.org/2000/svg">
<path d="M4.90669 18.0782C4.39836 18.0782 3.92336 17.9032 3.58169 17.5782C3.14836 17.1698 2.94003 16.5532 3.01503 15.8865L3.32336 13.1865C3.38169 12.6782 3.69003 12.0032 4.04836 11.6365L10.89 4.39482C12.5984 2.58648 14.3817 2.53648 16.19 4.24482C17.9984 5.95315 18.0484 7.73648 16.34 9.54482L9.49837 16.7865C9.14837 17.1615 8.49836 17.5115 7.99003 17.5948L5.30669 18.0532C5.16503 18.0615 5.04003 18.0782 4.90669 18.0782ZM13.565 4.23648C12.9234 4.23648 12.365 4.63648 11.7984 5.23648L4.95669 12.4865C4.79003 12.6615 4.59836 13.0782 4.56503 13.3198L4.25669 16.0198C4.22336 16.2948 4.29003 16.5198 4.44003 16.6615C4.59003 16.8032 4.81503 16.8532 5.09003 16.8115L7.77336 16.3532C8.01503 16.3115 8.41503 16.0948 8.5817 15.9198L15.4234 8.67815C16.4567 7.57815 16.8317 6.56148 15.3234 5.14482C14.6567 4.50315 14.0817 4.23648 13.565 4.23648Z" fill="#08A045"/>
<path d="M14.74 10.9375C14.7233 10.9375 14.6983 10.9375 14.6816 10.9375C12.0816 10.6792 9.98995 8.70421 9.58995 6.12087C9.53995 5.77921 9.77329 5.46254 10.115 5.40421C10.4566 5.35421 10.7733 5.58754 10.8316 5.92921C11.1483 7.94587 12.7816 9.49587 14.815 9.69587C15.1566 9.72921 15.4066 10.0375 15.3733 10.3792C15.3316 10.6958 15.0566 10.9375 14.74 10.9375Z" fill="#08A045"/>
</svg>
