<svg width="46" height="46" viewBox="0 0 46 46" fill="none" xmlns="http://www.w3.org/2000/svg">
<g clip-path="url(#clip0_136_258)">
<path d="M23.5 33C16.8994 33 10.697 34.7054 5.30957 37.6995C9.5285 42.7713 15.8872 46 23 46C30.2871 46 36.7826 42.6111 40.9966 37.3235C35.7732 34.563 29.8191 33 23.5 33Z" fill="#878887"/>
<path d="M23.5 28C17.9772 28 13.5 23.5228 13.5 18C13.5 12.4772 17.9772 8 23.5 8C29.0228 8 33.5 12.4772 33.5 18C33.5 23.5228 29.0228 28 23.5 28Z" fill="#878887"/>
<path fill-rule="evenodd" clip-rule="evenodd" d="M23 0C10.2975 0 0 10.2975 0 23C0 28.5897 1.99403 33.7138 5.30957 37.6995C10.697 34.7054 16.8994 33 23.5 33C29.8191 33 35.7732 34.563 40.9966 37.3235C44.1284 33.3938 46 28.4155 46 23C46 10.2975 35.7025 0 23 0ZM13.5 18C13.5 23.5228 17.9772 28 23.5 28C29.0228 28 33.5 23.5228 33.5 18C33.5 12.4772 29.0228 8 23.5 8C17.9772 8 13.5 12.4772 13.5 18Z" fill="#E5E6E7"/>
</g>
<defs>
<clipPath id="clip0_136_258">
<rect width="46" height="46" rx="23" fill="white"/>
</clipPath>
</defs>
</svg>
